<?xml version="1.0" encoding="UTF-8" standalone="no"?>
<!-- Created with Inkscape (http://www.inkscape.org/) -->

<svg
   xmlns:dc="http://purl.org/dc/elements/1.1/"
   xmlns:cc="http://creativecommons.org/ns#"
   xmlns:rdf="http://www.w3.org/1999/02/22-rdf-syntax-ns#"
   xmlns:svg="http://www.w3.org/2000/svg"
   xmlns="http://www.w3.org/2000/svg"
   xmlns:sodipodi="http://sodipodi.sourceforge.net/DTD/sodipodi-0.dtd"
   xmlns:inkscape="http://www.inkscape.org/namespaces/inkscape"
   width="297mm"
   height="420mm"
   viewBox="0 0 1052.3622 1488.189"
   id="svg2"
   version="1.1"
   inkscape:version="0.91 r13725"
   sodipodi:docname="citibike-24.svg"
   style="shape-rendering:crispEdges">
  <defs
     id="defs4" />
  <sodipodi:namedview
     id="base"
     pagecolor="#ffffff"
     bordercolor="#666666"
     borderopacity="1.0"
     inkscape:pageopacity="0.0"
     inkscape:pageshadow="2"
     inkscape:zoom="10.076832"
     inkscape:cx="232.6728"
     inkscape:cy="590.56641"
     inkscape:document-units="px"
     inkscape:current-layer="layer1"
     showgrid="false"
     inkscape:window-width="1334"
     inkscape:window-height="775"
     inkscape:window-x="62"
     inkscape:window-y="23"
     inkscape:window-maximized="0" />
  <metadata
     id="metadata7">
    <rdf:RDF>
      <cc:Work
         rdf:about="">
        <dc:format>image/svg+xml</dc:format>
        <dc:type
           rdf:resource="http://purl.org/dc/dcmitype/StillImage" />
        <dc:title></dc:title>
      </cc:Work>
    </rdf:RDF>
  </metadata>
  <g
     inkscape:label="Layer 1"
     inkscape:groupmode="layer"
     id="layer1"
     transform="translate(0,435.82675)">
    <g
       id="g3342"
       inkscape:export-xdpi="176.44"
       inkscape:export-ydpi="176.44">
      <rect
         style="opacity:1;fill:none;fill-opacity:1;fill-rule:nonzero;stroke:none;stroke-width:1.05799997;stroke-linecap:butt;stroke-linejoin:miter;stroke-miterlimit:4;stroke-dasharray:none;stroke-dashoffset:0;stroke-opacity:1"
         id="rect3381"
         width="51.008091"
         height="51.008091"
         x="207.98663"
         y="435.60092" />
      <circle
         style="opacity:1;fill:#ffffff;fill-opacity:1;fill-rule:nonzero;stroke:none;stroke-width:1.05799997;stroke-linecap:butt;stroke-linejoin:miter;stroke-miterlimit:4;stroke-dasharray:none;stroke-dashoffset:0;stroke-opacity:1"
         id="path3373"
         cx="233.4057"
         cy="454.48996"
         r="17.633347"
         inkscape:export-xdpi="102.07932"
         inkscape:export-ydpi="102.07932" />
      <ellipse
         transform="scale(1,-1)"
         ry="6.0151429"
         rx="12.181642"
         cy="-479.7178"
         cx="233.9225"
         id="path3483"
         style="opacity:1;fill:#848484;fill-opacity:0.41176471;fill-rule:nonzero;stroke:none;stroke-width:1.05799997;stroke-linecap:butt;stroke-linejoin:miter;stroke-miterlimit:4;stroke-dasharray:none;stroke-dashoffset:0;stroke-opacity:1"
         inkscape:export-xdpi="102.07932"
         inkscape:export-ydpi="102.07932" />
      <circle
         transform="scale(1,-1)"
         r="15.678103"
         cy="-454.61832"
         cx="233.41278"
         id="path3479"
         style="fill:#446280;fill-opacity:1;fill-rule:nonzero;stroke:none;stroke-width:0.87735873;stroke-linecap:butt;stroke-linejoin:miter;stroke-miterlimit:4;stroke-dasharray:none;stroke-dashoffset:0;stroke-opacity:1"
         inkscape:export-xdpi="102.07932"
         inkscape:export-ydpi="102.07932" />
      <rect
         transform="scale(1,-1)"
         y="-479.45975"
         x="231.5193"
         height="14.493265"
         width="4.1676764"
         id="rect3481"
         style="fill:#446280;fill-opacity:1;fill-rule:nonzero;stroke:none;stroke-width:1.02774799;stroke-linecap:butt;stroke-linejoin:miter;stroke-miterlimit:4;stroke-dasharray:none;stroke-dashoffset:0;stroke-opacity:1"
         inkscape:export-xdpi="102.07932"
         inkscape:export-ydpi="102.07932" />
      <g
         transform="translate(220.68024,442.53873)"
         id="g3426"
         inkscape:export-xdpi="102.07932"
         inkscape:export-ydpi="102.07932">
        <g
           transform="translate(0,-1028.3622)"
           id="layer1-0">
          <g
             transform="translate(-84,-358)"
             id="bicycle-24"
             style="display:inline">
            <path
               d="m 98.875,1390.3622 c -0.56154,0.076 -0.63714,1.0579 -0.09375,1.2188 l 2.21875,0.875 0,1.9062 -7,0 0,-1 1.375,0 c 0.33019,0 0.625,-0.2948 0.625,-0.625 0,-0.3302 -0.29481,-0.6297 -0.625,-0.625 l -3.875,0 c -0.062,-0.01 -0.12547,-0.01 -0.1875,0 -0.32727,0.049 -0.58034,0.3915 -0.53125,0.7188 0.0491,0.3272 0.39149,0.5803 0.71875,0.5312 l 1.5,0 0,1 -1.0625,3.125 c -0.29968,-0.072 -0.61585,-0.125 -0.9375,-0.125 -2.20914,0 -4,1.7909 -4,4 0,2.2091 1.79086,4 4,4 2.20914,0 4,-1.7909 4,-4 0,-0.3004 -0.06221,-0.5935 -0.125,-0.875 l 1.125,0 c 0.19854,-0.01 0.39085,-0.1152 0.5,-0.2812 l 3.375,-4.8438 0.125,0 1,0 0.6875,2.0313 c -2.06189,0.1606 -3.6875,1.8656 -3.6875,3.9687 0,2.2091 1.79086,4 4,4 2.20914,0 4,-1.7909 4,-4 0,-1.8282 -1.23109,-3.3352 -2.90625,-3.8125 L 102,1394.3622 l 0,-2.3437 c 0,-0.1049 -0.0423,-0.211 -0.0937,-0.3125 -0.004,-0.01 0.004,-0.024 0,-0.031 -0.0149,-0.032 -0.0429,-0.064 -0.0625,-0.094 -0.032,-0.045 -0.0546,-0.086 -0.0937,-0.125 -0.0169,-0.016 -0.044,-0.017 -0.0625,-0.031 -0.0183,-0.015 -0.0433,-0.018 -0.0625,-0.031 -0.0324,-0.019 -0.0577,-0.05 -0.0937,-0.062 l -0.0312,-0.031 -0.4375,-0.1562 -1.84375,-0.75 c -0.06501,-0.025 -0.14929,-0.028 -0.21875,-0.031 -0.047,0 -0.0788,-0.011 -0.125,0 z m -4.875,5 4.40625,0 -2.71875,3.875 -1.3125,0 c -0.30967,-0.4941 -0.69912,-0.9009 -1.1875,-1.2187 L 94,1395.3622 Z m -3,3.5 c 1.38071,0 2.5,1.1193 2.5,2.5 0,1.3807 -1.11929,2.5 -2.5,2.5 -1.38071,0 -2.5,-1.1193 -2.5,-2.5 0,-1.3807 1.11929,-2.5 2.5,-2.5 z m 11,0 c 1.38071,0 2.5,1.1193 2.5,2.5 0,1.3807 -1.11929,2.5 -2.5,2.5 -1.38071,0 -2.5,-1.1193 -2.5,-2.5 0,-0.1726 0.0292,-0.3373 0.0625,-0.5 0.23312,-1.1392 1.22938,-2 2.4375,-2 z"
               inkscape:connector-curvature="0"
               id="path7060"
               style="color:#000000;display:inline;overflow:visible;visibility:visible;opacity:0.3;fill:#ffffff;fill-opacity:1;fill-rule:nonzero;stroke:#ffffff;stroke-width:2;stroke-linecap:butt;stroke-linejoin:round;stroke-miterlimit:4;stroke-dasharray:none;stroke-dashoffset:0;stroke-opacity:1;marker:none;enable-background:accumulate" />
            <path
               d="m 98.875,1390.3622 c -0.56154,0.076 -0.63714,1.0579 -0.09375,1.2188 l 2.21875,0.875 0,1.9062 -7,0 0,-1 1.375,0 c 0.33019,0 0.625,-0.2948 0.625,-0.625 0,-0.3302 -0.29481,-0.6297 -0.625,-0.625 l -3.875,0 c -0.062,-0.01 -0.12547,-0.01 -0.1875,0 -0.32727,0.049 -0.58034,0.3915 -0.53125,0.7188 0.0491,0.3272 0.39149,0.5803 0.71875,0.5312 l 1.5,0 0,1 -1.0625,3.125 c -0.29968,-0.072 -0.61585,-0.125 -0.9375,-0.125 -2.20914,0 -4,1.7909 -4,4 0,2.2091 1.79086,4 4,4 2.20914,0 4,-1.7909 4,-4 0,-0.3004 -0.06221,-0.5935 -0.125,-0.875 l 1.125,0 c 0.19854,-0.01 0.39085,-0.1152 0.5,-0.2812 l 3.375,-4.8438 0.125,0 1,0 0.6875,2.0313 c -2.06189,0.1606 -3.6875,1.8656 -3.6875,3.9687 0,2.2091 1.79086,4 4,4 2.20914,0 4,-1.7909 4,-4 0,-1.8282 -1.23109,-3.3352 -2.90625,-3.8125 L 102,1394.3622 l 0,-2.3437 c 0,-0.1049 -0.0423,-0.211 -0.0937,-0.3125 -0.004,-0.01 0.004,-0.024 0,-0.031 -0.0149,-0.032 -0.0429,-0.064 -0.0625,-0.094 -0.032,-0.045 -0.0546,-0.086 -0.0937,-0.125 -0.0169,-0.016 -0.044,-0.017 -0.0625,-0.031 -0.0183,-0.015 -0.0433,-0.018 -0.0625,-0.031 -0.0324,-0.019 -0.0577,-0.05 -0.0937,-0.062 l -0.0312,-0.031 -0.4375,-0.1562 -1.84375,-0.75 c -0.06501,-0.025 -0.14929,-0.028 -0.21875,-0.031 -0.047,0 -0.0788,-0.011 -0.125,0 z m -4.875,5 4.40625,0 -2.71875,3.875 -1.3125,0 c -0.30967,-0.4941 -0.69912,-0.9009 -1.1875,-1.2187 L 94,1395.3622 Z m -3,3.5 c 1.38071,0 2.5,1.1193 2.5,2.5 0,1.3807 -1.11929,2.5 -2.5,2.5 -1.38071,0 -2.5,-1.1193 -2.5,-2.5 0,-1.3807 1.11929,-2.5 2.5,-2.5 z m 11,0 c 1.38071,0 2.5,1.1193 2.5,2.5 0,1.3807 -1.11929,2.5 -2.5,2.5 -1.38071,0 -2.5,-1.1193 -2.5,-2.5 0,-0.1726 0.0292,-0.3373 0.0625,-0.5 0.23312,-1.1392 1.22938,-2 2.4375,-2 z"
               inkscape:connector-curvature="0"
               id="path5421"
               style="color:#000000;display:inline;overflow:visible;visibility:visible;fill:#ffffff;fill-opacity:1;fill-rule:nonzero;stroke:none;stroke-width:1;marker:none;enable-background:accumulate" />
          </g>
        </g>
        <rect
           width="24"
           height="24"
           x="0"
           y="0"
           id="canvas"
           style="visibility:hidden;fill:none;stroke:none" />
      </g>
    </g>
  </g>
</svg>
